<svg xmlns="http://www.w3.org/2000/svg" viewBox="0 0 30 30" width="30px" height="30px"><path fill="#8bb7f0" d="M14.5 25.346L14.5 15.5 28.5 15.5 28.5 27.421z"/><path fill="#4e7ab5" d="M28,16v10.841l-13-1.926V16H28 M29,15H14v10.778L29,28V15L29,15z"/><path fill="#8bb7f0" d="M2.5 23.568L2.5 15.5 12.5 15.5 12.5 25.051z"/><path fill="#4e7ab5" d="M12,16v8.471l-9-1.333V16H12 M13,15H2v9l11,1.63V15L13,15z"/><g><path fill="#8bb7f0" d="M2.5 13.5L2.5 5.432 12.5 3.949 12.5 13.5z"/><path fill="#4e7ab5" d="M12,4.529V13H3V5.863L12,4.529 M13,3.37L2,5v9h11V3.37L13,3.37z"/></g><g><path fill="#8bb7f0" d="M14.5 13.5L14.5 3.654 28.5 1.579 28.5 13.5z"/><path fill="#4e7ab5" d="M28,2.159V13H15V4.085L28,2.159 M29,1L14,3.222V14h15V1L29,1z"/></g></svg>